<?xml version="1.0" encoding="UTF-8" standalone="no" ?>
<!DOCTYPE svg PUBLIC "-//W3C//DTD SVG 1.1//EN" "http://www.w3.org/Graphics/SVG/1.1/DTD/svg11.dtd">
<svg xmlns="http://www.w3.org/2000/svg" xmlns:xlink="http://www.w3.org/1999/xlink" version="1.1" width="1280" height="1024" viewBox="0 0 1280 1024" xml:space="preserve">
<desc>Created with Fabric.js 5.3.0</desc>
<defs>
</defs>
<g transform="matrix(1 0 0 1 640 512)" id="background-logo"  >
<rect style="stroke: none; stroke-width: 0; stroke-dasharray: none; stroke-linecap: butt; stroke-dashoffset: 0; stroke-linejoin: miter; stroke-miterlimit: 4; fill: rgb(255,255,255); fill-opacity: 0; fill-rule: nonzero; opacity: 1;"  paint-order="stroke"  x="-640" y="-512" rx="0" ry="0" width="1280" height="1024" />
</g>
<g transform="matrix(1.9211538461538462 0 0 1.9211538461538462 640.3146173946311 507.9841444682167)" id="text-logo"  >
<g style=""  paint-order="stroke"   >
		<g transform="matrix(1 0 0 1 0 0)" id="text-logo-path-0"  >
<filter id="SVGID_76611" y="-26.682250837428832%" height="153.36450167485765%" x="-20.452023137420685%" width="140.90404627484136%" >
	<feGaussianBlur in="SourceAlpha" stdDeviation="1.0731707317073171"></feGaussianBlur>
	<feOffset dx="0" dy="0" result="oBlur" ></feOffset>
	<feFlood flood-color="rgb(0,0,0)" flood-opacity="1"/>
	<feComposite in2="oBlur" operator="in" />
	<feMerge>
		<feMergeNode></feMergeNode>
		<feMergeNode in="SourceGraphic"></feMergeNode>
	</feMerge>
</filter>
<path style="stroke: none; stroke-width: 0; stroke-dasharray: none; stroke-linecap: butt; stroke-dashoffset: 0; stroke-linejoin: miter; stroke-miterlimit: 4; fill: rgb(255,255,255); fill-rule: nonzero; opacity: 1;filter: url(#SVGID_76611);"  paint-order="stroke"  transform=" translate(-240.805, 15.38998133538718)" d="M 3.39 0 L 4.28 0 L 4.28 -29.3 L 18.13 -6.17 L 18.84 -6.17 L 32.7 -29.3 L 32.7 0 L 33.58 0 L 33.58 -31.24 L 32.87 -31.24 L 18.48 -7.22 L 4.08 -31.24 L 3.39 -31.24 Z M 39.51 -15.62 C 39.51 -7.65 45.42 -0.02 54.06 0.21 C 58.16 0.15 61.79 -1.7 64.39 -4.6 C 66.99 -7.5 68.58 -11.47 68.58 -15.62 C 68.58 -19.49 67.12 -23.44 64.57 -26.45 C 62.01 -29.43 58.36 -31.45 54.06 -31.45 C 45.85 -31.45 39.51 -23.96 39.51 -15.62 Z M 40.4 -15.62 C 40.37 -23.01 45.96 -30.59 54.06 -30.57 C 61.79 -30.64 67.72 -23.35 67.7 -15.62 C 67.7 -11.92 66.33 -8.19 63.94 -5.37 C 61.56 -2.56 58.1 -0.67 54.06 -0.67 C 46.13 -0.6 40.63 -7.88 40.4 -15.62 Z M 74.52 0 L 75.4 0 L 75.4 -29.3 L 89.26 -6.17 L 89.97 -6.17 L 103.82 -29.3 L 103.82 0 L 104.7 0 L 104.7 -31.24 L 103.99 -31.24 L 89.6 -7.22 L 75.21 -31.24 L 74.52 -31.24 Z M 111.61 0 L 132.1 0 L 132.1 -0.88 L 112.49 -0.88 L 112.49 -15.53 L 129.33 -15.53 L 129.33 -16.41 L 112.49 -16.41 L 112.49 -30.36 L 131.71 -30.36 L 131.71 -31.24 L 111.61 -31.24 Z M 135.74 0 L 136.62 0 L 136.62 -29.52 L 160.14 0 L 161.15 0 L 161.15 -31.2 L 160.29 -31.2 L 160.29 -1.27 L 136.38 -31.24 L 135.74 -31.24 Z M 164.98 -30.36 L 176.95 -30.36 L 176.95 0 L 177.83 0 L 177.83 -30.36 L 189.8 -30.36 L 189.8 -31.24 L 164.98 -31.24 Z M 193.22 -15.19 C 193.24 -7.33 196.16 0.69 206.02 0.67 C 215.65 0.62 218.81 -6.88 218.78 -15.19 L 218.78 -31.24 L 217.9 -31.24 L 217.9 -15.19 C 217.9 -13.36 217.73 -11.56 217.39 -9.78 C 217.02 -7.99 216.4 -6.38 215.5 -4.98 C 214.57 -3.57 213.37 -2.43 211.85 -1.55 C 210.32 -0.67 208.36 -0.21 206.02 -0.21 C 196.72 -0.24 194.08 -7.61 194.1 -15.19 L 194.1 -31.24 L 193.22 -31.24 Z M 225.43 0 L 226.31 0 L 226.31 -29.3 L 240.17 -6.17 L 240.88 -6.17 L 254.73 -29.3 L 254.73 0 L 255.61 0 L 255.61 -31.24 L 254.91 -31.24 L 240.51 -7.22 L 226.12 -31.24 L 225.43 -31.24 Z M 276.98 0 L 291.44 0 C 295.74 0 299 -3.8 299.24 -8.1 C 299.24 -11.6 296.96 -14.97 293.44 -16.01 C 294.81 -16.63 295.91 -17.6 296.7 -18.91 C 297.5 -20.22 297.91 -21.68 297.91 -23.27 C 297.91 -27.16 295.13 -31.24 290.79 -31.24 L 276.98 -31.24 Z M 291.44 -0.88 L 277.86 -0.88 L 277.86 -15.32 L 291.76 -15.32 C 295.5 -15.32 298.36 -11.84 298.36 -8.1 C 298.36 -4.47 295.33 -0.88 291.44 -0.88 Z M 290.52 -16.2 L 277.86 -16.2 L 277.86 -30.36 L 290.79 -30.36 C 294.47 -30.25 297.02 -27.09 297.02 -23.27 C 297.02 -19.81 294.38 -16.2 290.52 -16.2 Z M 304.85 -15.19 C 304.87 -7.33 307.79 0.69 317.66 0.67 C 327.28 0.62 330.44 -6.88 330.42 -15.19 L 330.42 -31.24 L 329.54 -31.24 L 329.54 -15.19 C 329.54 -13.36 329.36 -11.56 329.02 -9.78 C 328.66 -7.99 328.03 -6.38 327.13 -4.98 C 326.21 -3.57 325 -2.43 323.48 -1.55 C 321.95 -0.67 320 -0.21 317.66 -0.21 C 308.35 -0.24 305.71 -7.61 305.73 -15.19 L 305.73 -31.24 L 304.85 -31.24 Z M 336.7 -5.2 L 336.05 -4.62 C 337.36 -3.31 338.99 -2.17 340.91 -1.22 C 342.82 -0.26 345.07 0.21 347.65 0.21 C 350.12 0.21 353 -0.3 355.28 -1.61 C 357.56 -2.92 359.19 -4.94 359.19 -8.06 C 359.19 -14.42 353.07 -16.07 347.44 -16.07 C 342.63 -16.07 337.36 -17.42 337.36 -23.42 C 337.47 -28.75 342.41 -30.57 347.31 -30.57 C 350.62 -30.57 354.16 -29.71 356.2 -26.75 L 357.02 -27.11 C 355.09 -29.91 352.44 -31.45 347.31 -31.45 C 342.39 -31.45 336.48 -29.37 336.48 -23.42 C 336.48 -17.04 341.79 -15.19 347.44 -15.19 C 352.12 -15.19 358.31 -14.01 358.31 -8.06 C 358.31 -2.66 352.46 -0.67 347.65 -0.67 C 343.63 -0.67 339.53 -2.23 336.7 -5.2 Z M 364.67 0 L 365.55 0 L 365.55 -31.2 L 364.67 -31.2 Z M 371.96 0 L 372.84 0 L 372.84 -29.52 L 396.37 0 L 397.38 0 L 397.38 -31.2 L 396.52 -31.2 L 396.52 -1.27 L 372.61 -31.24 L 371.96 -31.24 Z M 404.34 0 L 424.84 0 L 424.84 -0.88 L 405.22 -0.88 L 405.22 -15.53 L 422.07 -15.53 L 422.07 -16.41 L 405.22 -16.41 L 405.22 -30.36 L 424.45 -30.36 L 424.45 -31.24 L 404.34 -31.24 Z M 428.07 -5.2 L 427.42 -4.62 C 428.73 -3.31 430.37 -2.17 432.28 -1.22 C 434.19 -0.26 436.45 0.21 439.02 0.21 C 441.5 0.21 444.37 -0.3 446.65 -1.61 C 448.93 -2.92 450.56 -4.94 450.56 -8.06 C 450.56 -14.42 444.44 -16.07 438.81 -16.07 C 434 -16.07 428.73 -17.42 428.73 -23.42 C 428.84 -28.75 433.78 -30.57 438.68 -30.57 C 441.99 -30.57 445.53 -29.71 447.58 -26.75 L 448.39 -27.11 C 446.46 -29.91 443.82 -31.45 438.68 -31.45 C 433.76 -31.45 427.85 -29.37 427.85 -23.42 C 427.85 -17.04 433.16 -15.19 438.81 -15.19 C 443.49 -15.19 449.68 -14.01 449.68 -8.06 C 449.68 -2.66 443.84 -0.67 439.02 -0.67 C 435.01 -0.67 430.9 -2.23 428.07 -5.2 Z M 455.72 -5.2 L 455.08 -4.62 C 456.39 -3.31 458.02 -2.17 459.93 -1.22 C 461.85 -0.26 464.1 0.21 466.68 0.21 C 469.15 0.21 472.03 -0.3 474.31 -1.61 C 476.58 -2.92 478.22 -4.94 478.22 -8.06 C 478.22 -14.42 472.09 -16.07 466.47 -16.07 C 461.65 -16.07 456.39 -17.42 456.39 -23.42 C 456.5 -28.75 461.44 -30.57 466.34 -30.57 C 469.65 -30.57 473.19 -29.71 475.23 -26.75 L 476.05 -27.11 C 474.11 -29.91 471.47 -31.45 466.34 -31.45 C 461.42 -31.45 455.51 -29.37 455.51 -23.42 C 455.51 -17.04 460.81 -15.19 466.47 -15.19 C 471.15 -15.19 477.34 -14.01 477.34 -8.06 C 477.34 -2.66 471.49 -0.67 466.68 -0.67 C 462.66 -0.67 458.56 -2.23 455.72 -5.2 Z" stroke-linecap="round" />
</g>
</g>
</g>
<g transform="matrix(1.9211538461538462 0 0 1.9211538461538462 622.8320522016 593.3354966372531)" id="tagline-4e6c102c-7a34-4013-8700-265b7bf6ce75-logo"  >
<g style=""  paint-order="stroke"   >
		<g transform="matrix(1 0 0 1 0 0)" id="tagline-4e6c102c-7a34-4013-8700-265b7bf6ce75-logo-path-0"  >
<path style="stroke: none; stroke-width: 0; stroke-dasharray: none; stroke-linecap: butt; stroke-dashoffset: 0; stroke-linejoin: miter; stroke-miterlimit: 4; fill: rgb(255,255,255); fill-rule: nonzero; opacity: 1;"  paint-order="stroke"  transform=" translate(-120.175, 11.894975832199295)" d="M 2.34 -4.02 L 1.84 -3.57 C 2.86 -2.56 4.12 -1.68 5.59 -0.95 C 7.07 -0.2 8.82 0.17 10.81 0.17 C 12.72 0.17 14.94 -0.23 16.7 -1.25 C 18.46 -2.26 19.72 -3.82 19.72 -6.23 C 19.72 -11.14 14.99 -12.42 10.64 -12.42 C 6.92 -12.42 2.86 -13.46 2.86 -18.1 C 2.94 -22.21 6.76 -23.62 10.54 -23.62 C 13.1 -23.62 15.84 -22.96 17.42 -20.67 L 18.05 -20.95 C 16.55 -23.11 14.51 -24.3 10.54 -24.3 C 6.74 -24.3 2.17 -22.69 2.17 -18.1 C 2.17 -13.17 6.28 -11.74 10.64 -11.74 C 14.26 -11.74 19.04 -10.82 19.04 -6.23 C 19.04 -2.06 14.53 -0.51 10.81 -0.51 C 7.7 -0.51 4.53 -1.73 2.34 -4.02 Z M 29.61 -12.07 C 29.61 -5.91 34.17 -0.02 40.85 0.17 C 44.02 0.12 46.82 -1.31 48.83 -3.55 C 50.84 -5.79 52.07 -8.87 52.07 -12.07 C 52.07 -15.06 50.94 -18.11 48.96 -20.44 C 46.99 -22.74 44.17 -24.3 40.85 -24.3 C 34.5 -24.3 29.61 -18.51 29.61 -12.07 Z M 30.29 -12.07 C 30.27 -17.78 34.59 -23.64 40.85 -23.62 C 46.82 -23.67 51.4 -18.05 51.39 -12.07 C 51.39 -9.21 50.32 -6.33 48.48 -4.15 C 46.64 -1.98 43.97 -0.51 40.85 -0.51 C 34.72 -0.46 30.47 -6.09 30.29 -12.07 Z M 63.08 0 L 78.92 0 L 78.92 -0.68 L 63.76 -0.68 L 63.76 -24.14 L 63.08 -24.14 Z M 87.85 -11.74 C 87.87 -5.66 90.13 0.53 97.75 0.51 C 105.19 0.48 107.63 -5.31 107.61 -11.74 L 107.61 -24.14 L 106.93 -24.14 L 106.93 -11.74 C 106.93 -10.33 106.8 -8.93 106.53 -7.55 C 106.25 -6.18 105.77 -4.93 105.07 -3.85 C 104.36 -2.76 103.43 -1.88 102.25 -1.2 C 101.07 -0.51 99.56 -0.17 97.75 -0.17 C 90.56 -0.18 88.52 -5.88 88.54 -11.74 L 88.54 -24.14 L 87.85 -24.14 Z M 116.68 -23.46 L 125.93 -23.46 L 125.93 0 L 126.61 0 L 126.61 -23.46 L 135.85 -23.46 L 135.85 -24.14 L 116.68 -24.14 Z M 145.17 0 L 145.85 0 L 145.85 -24.11 L 145.17 -24.11 Z M 156.38 -12.07 C 156.38 -5.91 160.95 -0.02 167.62 0.17 C 170.79 0.12 173.6 -1.31 175.61 -3.55 C 177.62 -5.79 178.85 -8.87 178.85 -12.07 C 178.85 -15.06 177.72 -18.11 175.74 -20.44 C 173.77 -22.74 170.94 -24.3 167.62 -24.3 C 161.28 -24.3 156.38 -18.51 156.38 -12.07 Z M 157.07 -12.07 C 157.05 -17.78 161.37 -23.64 167.62 -23.62 C 173.6 -23.67 178.18 -18.05 178.17 -12.07 C 178.17 -9.21 177.1 -6.33 175.26 -4.15 C 173.42 -1.98 170.74 -0.51 167.62 -0.51 C 161.5 -0.46 157.25 -6.09 157.07 -12.07 Z M 189.89 0 L 190.57 0 L 190.57 -22.81 L 208.75 0 L 209.53 0 L 209.53 -24.11 L 208.87 -24.11 L 208.87 -0.98 L 190.39 -24.14 L 189.89 -24.14 Z M 221.12 -4.02 L 220.63 -3.57 C 221.64 -2.56 222.9 -1.68 224.38 -0.95 C 225.86 -0.2 227.6 0.17 229.59 0.17 C 231.5 0.17 233.73 -0.23 235.48 -1.25 C 237.24 -2.26 238.51 -3.82 238.51 -6.23 C 238.51 -11.14 233.77 -12.42 229.43 -12.42 C 225.71 -12.42 221.64 -13.46 221.64 -18.1 C 221.72 -22.21 225.54 -23.62 229.33 -23.62 C 231.88 -23.62 234.62 -22.96 236.2 -20.67 L 236.83 -20.95 C 235.34 -23.11 233.29 -24.3 229.33 -24.3 C 225.52 -24.3 220.96 -22.69 220.96 -18.1 C 220.96 -13.17 225.06 -11.74 229.43 -11.74 C 233.04 -11.74 237.83 -10.82 237.83 -6.23 C 237.83 -2.06 233.31 -0.51 229.59 -0.51 C 226.49 -0.51 223.32 -1.73 221.12 -4.02 Z" stroke-linecap="round" />
</g>
</g>
</g>
<g transform="matrix(1.9211538461538462 0 0 1.9211538461538462 639.1265788579722 294.2413158814391)" id="tagline-e981baa2-22bc-4d36-8038-689487f7e761-logo"  >
<g style=""  paint-order="stroke"   >
		<g transform="matrix(1 0 0 1 0 0)" id="tagline-e981baa2-22bc-4d36-8038-689487f7e761-logo-path-0"  >
<path style="stroke: rgb(255,255,255); stroke-width: 0; stroke-dasharray: none; stroke-linecap: butt; stroke-dashoffset: 0; stroke-linejoin: miter; stroke-miterlimit: 4; fill: rgb(255,255,255); fill-rule: nonzero; opacity: 1;"  paint-order="stroke"  transform=" translate(-50.085, 40.42)" d="M 95.34 -79.12 Q 91.2 -78.89 89.3 -78.2 Q 87.4 -77.51 86.71 -75.56 Q 86.02 -73.6 86.02 -69.23 L 86.02 -69.23 L 86.02 -12.19 Q 86.02 -7.82 86.71 -5.87 Q 87.4 -3.91 89.3 -3.22 Q 91.2 -2.53 95.34 -2.3 L 95.34 -2.3 L 95.34 0 Q 90.05 -0.35 80.73 -0.35 L 80.73 -0.35 Q 70.84 -0.35 66.01 0 L 66.01 0 L 66.01 -2.3 Q 70.15 -2.53 72.05 -3.22 Q 73.95 -3.91 74.64 -5.87 Q 75.33 -7.82 75.33 -12.19 L 75.33 -12.19 L 75.33 -73.83 L 47.61 0.58 L 45.77 0.58 L 16.79 -74.06 L 16.79 -13.34 Q 16.79 -8.86 17.54 -6.67 Q 18.29 -4.49 20.47 -3.51 Q 22.66 -2.53 27.26 -2.3 L 27.26 -2.3 L 27.26 0 Q 23.12 -0.35 15.53 -0.35 L 15.53 -0.35 Q 8.63 -0.35 4.83 0 L 4.83 0 L 4.83 -2.3 Q 8.86 -2.53 10.81 -3.51 Q 12.77 -4.49 13.46 -6.73 Q 14.15 -8.97 14.15 -13.34 L 14.15 -13.34 L 14.15 -69.23 Q 14.15 -73.6 13.46 -75.56 Q 12.77 -77.51 10.87 -78.2 Q 8.97 -78.89 4.83 -79.12 L 4.83 -79.12 L 4.83 -81.42 Q 8.63 -81.08 15.53 -81.08 L 15.53 -81.08 Q 21.51 -81.08 25.3 -81.42 L 25.3 -81.42 L 50.6 -14.84 L 75.33 -81.08 L 80.73 -81.08 Q 90.05 -81.08 95.34 -81.42 L 95.34 -81.42 L 95.34 -79.12 Z" stroke-linecap="round" />
</g>
</g>
</g>
<g transform="matrix(1.9211538461538462 0 0 1.9211538461538462 638.159925631588 690.8444069848917)" id="tagline-7220e0e9-7623-4c0e-9375-990d8e4b9fc4-logo"  >
<g style=""  paint-order="stroke"   >
		<g transform="matrix(1 0 0 1 0 0)" id="tagline-7220e0e9-7623-4c0e-9375-990d8e4b9fc4-logo-path-0"  >
<path style="stroke: rgb(255,255,255); stroke-width: 0; stroke-dasharray: none; stroke-linecap: butt; stroke-dashoffset: 0; stroke-linejoin: miter; stroke-miterlimit: 4; fill: rgb(255,255,255); fill-rule: nonzero; opacity: 1;"  paint-order="stroke"  transform=" translate(-288.695, 10.25)" d="M 26.01 -20.45 L 26.01 -20.45 Q 27.38 -20.45 28.25 -20.53 L 28.25 -20.53 L 28.25 -19.95 Q 27.52 -19.66 26.84 -18.84 Q 26.16 -18.01 25.69 -16.5 L 25.69 -16.5 L 20.59 0.06 Q 20.27 0.03 19.57 0.03 L 19.57 0.03 Q 18.88 0.03 18.56 0.06 L 18.56 0.06 L 14.3 -12.88 L 10.01 0.06 Q 9.69 0.03 8.99 0.03 L 8.99 0.03 Q 8.29 0.03 7.98 0.06 L 7.98 0.06 L 1.48 -18.1 Q 1.13 -19.05 0.64 -19.49 Q 0.15 -19.92 -0.35 -19.95 L -0.35 -19.95 L -0.35 -20.53 Q 1.39 -20.45 3.97 -20.45 L 3.97 -20.45 Q 6.41 -20.45 7.54 -20.53 L 7.54 -20.53 L 7.54 -19.95 Q 6.53 -19.81 6.53 -18.82 L 6.53 -18.82 Q 6.53 -18.36 6.79 -17.52 L 6.79 -17.52 L 11.02 -5.25 L 13.95 -13.89 L 12.47 -18.39 Q 12.18 -19.23 11.79 -19.56 Q 11.4 -19.89 10.88 -19.95 L 10.88 -19.95 L 10.88 -20.53 Q 12.5 -20.45 15.02 -20.45 L 15.02 -20.45 Q 17.86 -20.45 19.2 -20.53 L 19.2 -20.53 L 19.2 -19.95 Q 18.15 -19.92 17.69 -19.71 Q 17.23 -19.49 17.23 -18.88 L 17.23 -18.88 Q 17.23 -18.36 17.52 -17.52 L 17.52 -17.52 L 21.49 -5.39 L 24.24 -14.15 Q 24.91 -16.33 24.91 -17.52 L 24.91 -17.52 Q 24.91 -18.76 24.29 -19.33 Q 23.66 -19.89 22.42 -19.95 L 22.42 -19.95 L 22.42 -20.53 Q 24.39 -20.45 26.01 -20.45 Z M 51.27 -17.63 L 51.27 -17.05 Q 50.29 -16.99 49.85 -16.82 Q 49.42 -16.65 49.26 -16.15 Q 49.1 -15.66 49.1 -14.56 L 49.1 -14.56 L 49.1 -3.07 Q 49.1 -1.97 49.26 -1.48 Q 49.42 -0.99 49.87 -0.81 Q 50.31 -0.64 51.27 -0.58 L 51.27 -0.58 L 51.27 0 Q 49.94 -0.09 47.04 -0.09 L 47.04 -0.09 Q 44.11 -0.09 42.48 0 L 42.48 0 L 42.48 -0.58 Q 43.47 -0.64 43.91 -0.81 Q 44.34 -0.99 44.5 -1.48 Q 44.66 -1.97 44.66 -3.07 L 44.66 -3.07 L 44.66 -8.7 L 37.21 -8.7 L 37.21 -3.07 Q 37.21 -1.97 37.37 -1.48 Q 37.53 -0.99 37.98 -0.81 Q 38.43 -0.64 39.38 -0.58 L 39.38 -0.58 L 39.38 0 Q 37.79 -0.09 34.83 -0.09 L 34.83 -0.09 Q 31.99 -0.09 30.6 0 L 30.6 0 L 30.6 -0.58 Q 31.58 -0.64 32.02 -0.81 Q 32.45 -0.99 32.61 -1.48 Q 32.77 -1.97 32.77 -3.07 L 32.77 -3.07 L 32.77 -14.56 Q 32.77 -15.66 32.61 -16.15 Q 32.45 -16.65 32 -16.82 Q 31.55 -16.99 30.6 -17.05 L 30.6 -17.05 L 30.6 -17.63 Q 31.99 -17.55 34.83 -17.55 L 34.83 -17.55 Q 37.79 -17.55 39.38 -17.63 L 39.38 -17.63 L 39.38 -17.05 Q 38.4 -16.99 37.96 -16.82 Q 37.53 -16.65 37.37 -16.15 Q 37.21 -15.66 37.21 -14.56 L 37.21 -14.56 L 37.21 -9.28 L 44.66 -9.28 L 44.66 -14.56 Q 44.66 -15.66 44.5 -16.15 Q 44.34 -16.65 43.89 -16.82 Q 43.44 -16.99 42.48 -17.05 L 42.48 -17.05 L 42.48 -17.63 Q 44.11 -17.55 47.04 -17.55 L 47.04 -17.55 Q 49.94 -17.55 51.27 -17.63 L 51.27 -17.63 Z M 69.92 -3.77 L 69.92 -3.77 Q 69.92 -2.12 70.12 0 L 70.12 0 Q 68.24 -0.09 63.77 -0.09 L 63.77 -0.09 Q 57.8 -0.09 54.78 0 L 54.78 0 L 54.78 -0.58 Q 55.77 -0.64 56.2 -0.81 Q 56.64 -0.99 56.8 -1.48 Q 56.96 -1.97 56.96 -3.07 L 56.96 -3.07 L 56.96 -14.56 Q 56.96 -15.66 56.8 -16.15 Q 56.64 -16.65 56.19 -16.82 Q 55.74 -16.99 54.78 -17.05 L 54.78 -17.05 L 54.78 -17.63 Q 57.8 -17.55 63.77 -17.55 L 63.77 -17.55 Q 67.83 -17.55 69.54 -17.63 L 69.54 -17.63 Q 69.34 -15.69 69.34 -14.15 L 69.34 -14.15 Q 69.34 -13.02 69.43 -12.35 L 69.43 -12.35 L 68.76 -12.35 Q 68.32 -14.85 67.25 -15.91 Q 66.18 -16.96 64.29 -16.96 L 64.29 -16.96 L 63.22 -16.96 Q 62.47 -16.96 62.09 -16.83 Q 61.71 -16.7 61.55 -16.31 Q 61.39 -15.92 61.39 -15.08 L 61.39 -15.08 L 61.39 -9.16 L 62.76 -9.16 Q 64.09 -9.16 64.77 -10.11 Q 65.45 -11.05 65.69 -12.3 L 65.69 -12.3 L 66.35 -12.3 Q 66.27 -11.31 66.27 -10.03 L 66.27 -10.03 L 66.27 -8.87 Q 66.27 -7.57 66.44 -5.45 L 66.44 -5.45 L 65.77 -5.45 Q 65.57 -6.82 64.86 -7.7 Q 64.15 -8.58 62.76 -8.58 L 62.76 -8.58 L 61.39 -8.58 L 61.39 -2.55 Q 61.39 -1.71 61.55 -1.32 Q 61.71 -0.93 62.09 -0.8 Q 62.47 -0.67 63.22 -0.67 L 63.22 -0.67 L 64.47 -0.67 Q 66.53 -0.67 67.7 -1.86 Q 68.88 -3.05 69.34 -5.86 L 69.34 -5.86 L 70.01 -5.86 Q 69.92 -5.05 69.92 -3.77 Z M 92.34 -1.59 L 92.74 -1.22 Q 92.05 -0.41 91.18 0 Q 90.31 0.41 89 0.41 L 89 0.41 Q 87.35 0.41 86.45 -0.23 Q 85.55 -0.87 85.29 -1.94 L 85.29 -1.94 L 84.45 -5.37 Q 84.13 -6.99 83.48 -7.53 Q 82.82 -8.06 81.55 -8.06 L 81.55 -8.06 L 80.59 -8.06 L 80.59 -3.07 Q 80.59 -1.97 80.75 -1.48 Q 80.91 -0.99 81.36 -0.81 Q 81.81 -0.64 82.77 -0.58 L 82.77 -0.58 L 82.77 0 Q 81.11 -0.09 78.04 -0.09 L 78.04 -0.09 Q 75.34 -0.09 73.98 0 L 73.98 0 L 73.98 -0.58 Q 74.97 -0.64 75.4 -0.81 Q 75.84 -0.99 75.99 -1.48 Q 76.15 -1.97 76.15 -3.07 L 76.15 -3.07 L 76.15 -14.56 Q 76.15 -15.66 75.99 -16.15 Q 75.84 -16.65 75.4 -16.82 Q 74.97 -16.99 73.98 -17.05 L 73.98 -17.05 L 73.98 -17.63 Q 75.34 -17.55 77.87 -17.55 L 77.87 -17.55 L 81.17 -17.57 Q 81.75 -17.6 82.48 -17.6 L 82.48 -17.6 Q 86.36 -17.6 88.29 -16.43 Q 90.22 -15.25 90.22 -13.17 L 90.22 -13.17 Q 90.22 -11.37 88.68 -10.01 Q 87.15 -8.64 83.55 -8.27 L 83.55 -8.27 Q 83.96 -8.27 84.39 -8.18 L 84.39 -8.18 Q 86.48 -7.95 87.68 -7.25 Q 88.89 -6.55 89.26 -5.05 L 89.26 -5.05 L 89.87 -2.47 Q 90.07 -1.65 90.36 -1.31 Q 90.65 -0.96 91.09 -0.96 L 91.09 -0.96 Q 91.7 -0.96 92.34 -1.59 L 92.34 -1.59 Z M 82.1 -17.05 L 82.1 -17.05 Q 81.46 -17.05 81.14 -16.85 Q 80.82 -16.65 80.71 -16.12 Q 80.59 -15.6 80.59 -14.56 L 80.59 -14.56 L 80.59 -8.64 L 81.84 -8.64 Q 83.98 -8.64 84.78 -9.74 Q 85.58 -10.85 85.58 -12.85 L 85.58 -12.85 Q 85.58 -14.96 84.78 -16.01 Q 83.98 -17.05 82.1 -17.05 Z M 109.97 -3.77 L 109.97 -3.77 Q 109.97 -2.12 110.17 0 L 110.17 0 Q 108.29 -0.09 103.82 -0.09 L 103.82 -0.09 Q 97.85 -0.09 94.83 0 L 94.83 0 L 94.83 -0.58 Q 95.82 -0.64 96.25 -0.81 Q 96.69 -0.99 96.85 -1.48 Q 97.01 -1.97 97.01 -3.07 L 97.01 -3.07 L 97.01 -14.56 Q 97.01 -15.66 96.85 -16.15 Q 96.69 -16.65 96.24 -16.82 Q 95.79 -16.99 94.83 -17.05 L 94.83 -17.05 L 94.83 -17.63 Q 97.85 -17.55 103.82 -17.55 L 103.82 -17.55 Q 107.88 -17.55 109.59 -17.63 L 109.59 -17.63 Q 109.39 -15.69 109.39 -14.15 L 109.39 -14.15 Q 109.39 -13.02 109.48 -12.35 L 109.48 -12.35 L 108.81 -12.35 Q 108.37 -14.85 107.3 -15.91 Q 106.23 -16.96 104.34 -16.96 L 104.34 -16.96 L 103.27 -16.96 Q 102.52 -16.96 102.14 -16.83 Q 101.76 -16.7 101.6 -16.31 Q 101.44 -15.92 101.44 -15.08 L 101.44 -15.08 L 101.44 -9.16 L 102.81 -9.16 Q 104.14 -9.16 104.82 -10.11 Q 105.5 -11.05 105.73 -12.3 L 105.73 -12.3 L 106.4 -12.3 Q 106.31 -11.31 106.31 -10.03 L 106.31 -10.03 L 106.31 -8.87 Q 106.31 -7.57 106.49 -5.45 L 106.49 -5.45 L 105.82 -5.45 Q 105.62 -6.82 104.91 -7.7 Q 104.2 -8.58 102.81 -8.58 L 102.81 -8.58 L 101.44 -8.58 L 101.44 -2.55 Q 101.44 -1.71 101.6 -1.32 Q 101.76 -0.93 102.14 -0.8 Q 102.52 -0.67 103.27 -0.67 L 103.27 -0.67 L 104.52 -0.67 Q 106.58 -0.67 107.75 -1.86 Q 108.92 -3.05 109.39 -5.86 L 109.39 -5.86 L 110.06 -5.86 Q 109.97 -5.05 109.97 -3.77 Z M 129.57 -20.91 L 129.57 -20.91 Q 131.08 -20.91 131.98 -20.62 Q 132.88 -20.33 133.81 -19.78 L 133.81 -19.78 Q 134.13 -19.6 134.37 -19.49 Q 134.62 -19.37 134.79 -19.37 L 134.79 -19.37 Q 135.05 -19.37 135.2 -19.68 Q 135.34 -19.98 135.43 -20.65 L 135.43 -20.65 L 136.1 -20.65 Q 135.95 -18.71 135.95 -14.04 L 135.95 -14.04 L 135.29 -14.04 Q 135.17 -15.6 134.57 -17.02 Q 133.98 -18.44 132.89 -19.33 Q 131.81 -20.21 130.36 -20.21 L 130.36 -20.21 Q 128.93 -20.21 128.05 -19.42 Q 127.17 -18.62 127.17 -17.26 L 127.17 -17.26 Q 127.17 -16.24 127.6 -15.49 Q 128.04 -14.73 128.82 -14.11 Q 129.6 -13.49 131.23 -12.41 L 131.23 -12.41 L 132.15 -11.77 Q 133.86 -10.64 134.85 -9.8 Q 135.84 -8.96 136.46 -7.84 Q 137.08 -6.73 137.08 -5.25 L 137.08 -5.25 Q 137.08 -3.39 136.13 -2.13 Q 135.17 -0.87 133.53 -0.23 Q 131.89 0.41 129.89 0.41 L 129.89 0.41 Q 128.27 0.41 127.19 0.12 Q 126.12 -0.17 125.22 -0.67 L 125.22 -0.67 Q 124.58 -1.07 124.24 -1.07 L 124.24 -1.07 Q 123.98 -1.07 123.83 -0.77 Q 123.69 -0.46 123.6 0.2 L 123.6 0.2 L 122.93 0.2 Q 123.05 -1.62 123.05 -7.63 L 123.05 -7.63 L 123.71 -7.63 Q 123.92 -4.38 125.16 -2.36 Q 126.41 -0.35 128.99 -0.35 L 128.99 -0.35 Q 130.56 -0.35 131.57 -1.19 Q 132.59 -2.03 132.59 -3.6 L 132.59 -3.6 Q 132.59 -5.22 131.54 -6.38 Q 130.5 -7.54 128.24 -8.99 L 128.24 -8.99 Q 126.5 -10.12 125.45 -10.96 Q 124.41 -11.8 123.74 -12.95 Q 123.08 -14.09 123.08 -15.6 L 123.08 -15.6 Q 123.08 -17.34 123.96 -18.55 Q 124.85 -19.75 126.32 -20.33 Q 127.8 -20.91 129.57 -20.91 Z M 157.82 -17.63 L 157.82 -17.63 Q 157.62 -15.43 157.62 -13.69 L 157.62 -13.69 Q 157.62 -12.06 157.7 -11.14 L 157.7 -11.14 L 157.04 -11.14 Q 156.63 -13.34 156.06 -14.59 Q 155.5 -15.83 154.61 -16.4 Q 153.73 -16.96 152.34 -16.96 L 152.34 -16.96 L 151.44 -16.96 L 151.44 -3.36 Q 151.44 -2.15 151.67 -1.59 Q 151.9 -1.04 152.48 -0.84 Q 153.06 -0.64 154.37 -0.58 L 154.37 -0.58 L 154.37 0 Q 152.8 -0.09 149.15 -0.09 L 149.15 -0.09 Q 145.46 -0.09 144.07 0 L 144.07 0 L 144.07 -0.58 Q 145.38 -0.64 145.96 -0.84 Q 146.54 -1.04 146.77 -1.59 Q 147 -2.15 147 -3.36 L 147 -3.36 L 147 -16.96 L 146.1 -16.96 Q 144.71 -16.96 143.83 -16.4 Q 142.94 -15.83 142.38 -14.59 Q 141.81 -13.34 141.4 -11.14 L 141.4 -11.14 L 140.74 -11.14 Q 140.82 -12.06 140.82 -13.69 L 140.82 -13.69 Q 140.82 -15.43 140.62 -17.63 L 140.62 -17.63 Q 143.14 -17.55 149.15 -17.55 L 149.15 -17.55 Q 155.27 -17.55 157.82 -17.63 Z M 179.51 -1.59 L 179.92 -1.22 Q 179.22 -0.41 178.35 0 Q 177.48 0.41 176.18 0.41 L 176.18 0.41 Q 174.52 0.41 173.62 -0.23 Q 172.72 -0.87 172.46 -1.94 L 172.46 -1.94 L 171.62 -5.37 Q 171.3 -6.99 170.65 -7.53 Q 170 -8.06 168.72 -8.06 L 168.72 -8.06 L 167.77 -8.06 L 167.77 -3.07 Q 167.77 -1.97 167.92 -1.48 Q 168.08 -0.99 168.53 -0.81 Q 168.98 -0.64 169.94 -0.58 L 169.94 -0.58 L 169.94 0 Q 168.29 -0.09 165.21 -0.09 L 165.21 -0.09 Q 162.52 -0.09 161.15 0 L 161.15 0 L 161.15 -0.58 Q 162.14 -0.64 162.57 -0.81 Q 163.01 -0.99 163.17 -1.48 Q 163.33 -1.97 163.33 -3.07 L 163.33 -3.07 L 163.33 -14.56 Q 163.33 -15.66 163.17 -16.15 Q 163.01 -16.65 162.57 -16.82 Q 162.14 -16.99 161.15 -17.05 L 161.15 -17.05 L 161.15 -17.63 Q 162.52 -17.55 165.04 -17.55 L 165.04 -17.55 L 168.35 -17.57 Q 168.93 -17.6 169.65 -17.6 L 169.65 -17.6 Q 173.54 -17.6 175.46 -16.43 Q 177.39 -15.25 177.39 -13.17 L 177.39 -13.17 Q 177.39 -11.37 175.86 -10.01 Q 174.32 -8.64 170.72 -8.27 L 170.72 -8.27 Q 171.13 -8.27 171.56 -8.18 L 171.56 -8.18 Q 173.65 -7.95 174.86 -7.25 Q 176.06 -6.55 176.44 -5.05 L 176.44 -5.05 L 177.05 -2.47 Q 177.25 -1.65 177.54 -1.31 Q 177.83 -0.96 178.26 -0.96 L 178.26 -0.96 Q 178.87 -0.96 179.51 -1.59 L 179.51 -1.59 Z M 169.27 -17.05 L 169.27 -17.05 Q 168.64 -17.05 168.32 -16.85 Q 168 -16.65 167.88 -16.12 Q 167.77 -15.6 167.77 -14.56 L 167.77 -14.56 L 167.77 -8.64 L 169.01 -8.64 Q 171.16 -8.64 171.96 -9.74 Q 172.75 -10.85 172.75 -12.85 L 172.75 -12.85 Q 172.75 -14.96 171.96 -16.01 Q 171.16 -17.05 169.27 -17.05 Z M 190.7 -17.69 L 197.61 -2.44 Q 198.45 -0.64 199.43 -0.58 L 199.43 -0.58 L 199.43 0 Q 198.04 -0.09 195.63 -0.09 L 195.63 -0.09 Q 192.53 -0.09 191.05 0 L 191.05 0 L 191.05 -0.58 Q 192.01 -0.64 192.47 -0.88 Q 192.94 -1.13 192.94 -1.71 L 192.94 -1.71 Q 192.94 -2.23 192.56 -3.02 L 192.56 -3.02 L 191.11 -6.32 L 185.02 -6.32 L 184.67 -5.54 Q 183.86 -3.63 183.86 -2.55 L 183.86 -2.55 Q 183.86 -1.57 184.5 -1.1 Q 185.14 -0.64 186.38 -0.58 L 186.38 -0.58 L 186.38 0 Q 184.73 -0.09 183.05 -0.09 L 183.05 -0.09 Q 181.48 -0.09 180.7 0 L 180.7 0 L 180.7 -0.58 Q 181.4 -0.73 181.99 -1.46 Q 182.58 -2.2 183.25 -3.68 L 183.25 -3.68 L 189.37 -17.69 Q 189.6 -17.66 190.04 -17.66 L 190.04 -17.66 Q 190.5 -17.66 190.7 -17.69 L 190.7 -17.69 Z M 185.28 -6.9 L 190.85 -6.9 L 188.07 -13.25 L 185.28 -6.9 Z M 218.75 -17.63 L 218.75 -17.63 Q 218.54 -15.43 218.54 -13.69 L 218.54 -13.69 Q 218.54 -12.06 218.63 -11.14 L 218.63 -11.14 L 217.96 -11.14 Q 217.56 -13.34 216.99 -14.59 Q 216.43 -15.83 215.54 -16.4 Q 214.66 -16.96 213.27 -16.96 L 213.27 -16.96 L 212.37 -16.96 L 212.37 -3.36 Q 212.37 -2.15 212.6 -1.59 Q 212.83 -1.04 213.41 -0.84 Q 213.99 -0.64 215.3 -0.58 L 215.3 -0.58 L 215.3 0 Q 213.73 -0.09 210.08 -0.09 L 210.08 -0.09 Q 206.39 -0.09 205 0 L 205 0 L 205 -0.58 Q 206.31 -0.64 206.89 -0.84 Q 207.47 -1.04 207.7 -1.59 Q 207.93 -2.15 207.93 -3.36 L 207.93 -3.36 L 207.93 -16.96 L 207.03 -16.96 Q 205.64 -16.96 204.75 -16.4 Q 203.87 -15.83 203.3 -14.59 Q 202.74 -13.34 202.33 -11.14 L 202.33 -11.14 L 201.67 -11.14 Q 201.75 -12.06 201.75 -13.69 L 201.75 -13.69 Q 201.75 -15.43 201.55 -17.63 L 201.55 -17.63 Q 204.07 -17.55 210.08 -17.55 L 210.08 -17.55 Q 216.2 -17.55 218.75 -17.63 Z M 237.22 -3.77 L 237.22 -3.77 Q 237.22 -2.12 237.42 0 L 237.42 0 Q 235.54 -0.09 231.07 -0.09 L 231.07 -0.09 Q 225.1 -0.09 222.08 0 L 222.08 0 L 222.08 -0.58 Q 223.07 -0.64 223.5 -0.81 Q 223.94 -0.99 224.1 -1.48 Q 224.26 -1.97 224.26 -3.07 L 224.26 -3.07 L 224.26 -14.56 Q 224.26 -15.66 224.1 -16.15 Q 223.94 -16.65 223.49 -16.82 Q 223.04 -16.99 222.08 -17.05 L 222.08 -17.05 L 222.08 -17.63 Q 225.1 -17.55 231.07 -17.55 L 231.07 -17.55 Q 235.13 -17.55 236.84 -17.63 L 236.84 -17.63 Q 236.64 -15.69 236.64 -14.15 L 236.64 -14.15 Q 236.64 -13.02 236.73 -12.35 L 236.73 -12.35 L 236.06 -12.35 Q 235.63 -14.85 234.55 -15.91 Q 233.48 -16.96 231.59 -16.96 L 231.59 -16.96 L 230.52 -16.96 Q 229.77 -16.96 229.39 -16.83 Q 229.01 -16.7 228.85 -16.31 Q 228.69 -15.92 228.69 -15.08 L 228.69 -15.08 L 228.69 -9.16 L 230.06 -9.16 Q 231.39 -9.16 232.07 -10.11 Q 232.75 -11.05 232.99 -12.3 L 232.99 -12.3 L 233.65 -12.3 Q 233.57 -11.31 233.57 -10.03 L 233.57 -10.03 L 233.57 -8.87 Q 233.57 -7.57 233.74 -5.45 L 233.74 -5.45 L 233.07 -5.45 Q 232.87 -6.82 232.16 -7.7 Q 231.45 -8.58 230.06 -8.58 L 230.06 -8.58 L 228.69 -8.58 L 228.69 -2.55 Q 228.69 -1.71 228.85 -1.32 Q 229.01 -0.93 229.39 -0.8 Q 229.77 -0.67 230.52 -0.67 L 230.52 -0.67 L 231.77 -0.67 Q 233.83 -0.67 235 -1.86 Q 236.18 -3.05 236.64 -5.86 L 236.64 -5.86 L 237.31 -5.86 Q 237.22 -5.05 237.22 -3.77 Z M 251.58 -18.04 L 251.58 -18.04 Q 253.32 -18.04 254.36 -17.57 Q 255.4 -17.11 256.68 -16.15 L 256.68 -16.15 Q 257.06 -15.86 257.26 -15.86 L 257.26 -15.86 Q 257.81 -15.86 257.98 -17.63 L 257.98 -17.63 L 258.65 -17.63 Q 258.54 -15.98 258.54 -11.83 L 258.54 -11.83 L 257.87 -11.83 Q 257.4 -14.09 256.42 -15.25 L 256.42 -15.25 Q 255.52 -16.24 254.61 -16.76 Q 253.69 -17.28 252.39 -17.28 L 252.39 -17.28 Q 250.5 -17.28 249.1 -16.24 Q 247.69 -15.2 246.94 -13.27 Q 246.18 -11.34 246.18 -8.79 L 246.18 -8.79 Q 246.18 -4.35 247.63 -2.26 Q 249.08 -0.17 251.95 -0.17 L 251.95 -0.17 Q 252.94 -0.17 253.61 -0.58 L 253.61 -0.58 Q 254.21 -0.96 254.21 -1.83 L 254.21 -1.83 L 254.21 -4.52 Q 254.21 -5.74 254 -6.29 Q 253.78 -6.84 253.23 -7.05 Q 252.68 -7.25 251.46 -7.31 L 251.46 -7.31 L 251.46 -7.89 Q 253.34 -7.8 256.24 -7.8 L 256.24 -7.8 Q 258.71 -7.8 259.96 -7.89 L 259.96 -7.89 L 259.96 -7.31 Q 259.35 -7.25 259.09 -7.08 Q 258.83 -6.9 258.74 -6.42 Q 258.65 -5.95 258.65 -4.81 L 258.65 -4.81 L 258.65 0 L 258.07 0 Q 257.96 -1.07 257.46 -1.07 L 257.46 -1.07 Q 257 -1.07 256.01 -0.55 L 256.01 -0.55 Q 253.84 0.41 251.55 0.41 L 251.55 0.41 Q 246.82 0.41 244.18 -1.93 Q 241.54 -4.26 241.54 -8.47 L 241.54 -8.47 Q 241.54 -11.37 242.82 -13.53 Q 244.09 -15.69 246.37 -16.86 Q 248.65 -18.04 251.58 -18.04 Z M 276.95 -17.55 L 276.95 -17.55 Q 278.4 -17.55 279.18 -17.63 L 279.18 -17.63 L 279.18 -17.05 Q 278.6 -16.79 278.01 -16.08 Q 277.41 -15.37 276.6 -13.95 L 276.6 -13.95 L 273.3 -7.86 L 273.3 -3.25 Q 273.3 -2.09 273.5 -1.55 Q 273.7 -1.02 274.25 -0.83 Q 274.8 -0.64 275.99 -0.58 L 275.99 -0.58 L 275.99 0 Q 274.49 -0.09 271.01 -0.09 L 271.01 -0.09 Q 267.47 -0.09 266.16 0 L 266.16 0 L 266.16 -0.58 Q 267.35 -0.64 267.9 -0.83 Q 268.45 -1.02 268.66 -1.55 Q 268.86 -2.09 268.86 -3.25 L 268.86 -3.25 L 268.86 -6.38 L 263.67 -15.4 Q 263.18 -16.24 262.8 -16.59 Q 262.42 -16.94 261.99 -17.02 L 261.99 -17.02 L 261.99 -17.63 Q 263.78 -17.49 265.41 -17.49 L 265.41 -17.49 Q 267.7 -17.49 270.51 -17.63 L 270.51 -17.63 L 270.51 -17.02 Q 269.64 -17.02 269.15 -16.86 Q 268.66 -16.7 268.66 -16.24 L 268.66 -16.24 Q 268.66 -15.86 268.98 -15.34 L 268.98 -15.34 L 272.92 -8.47 L 274.78 -11.86 Q 275.88 -13.89 275.88 -15.2 L 275.88 -15.2 Q 275.88 -16.96 273.7 -17.05 L 273.7 -17.05 L 273.7 -17.63 Q 275.47 -17.55 276.95 -17.55 Z M 314.27 -20.53 L 314.27 -19.95 Q 313.29 -19.89 312.85 -19.72 Q 312.42 -19.55 312.26 -19.05 Q 312.1 -18.56 312.1 -17.46 L 312.1 -17.46 L 312.1 -3.07 Q 312.1 -1.97 312.26 -1.48 Q 312.42 -0.99 312.87 -0.81 Q 313.32 -0.64 314.27 -0.58 L 314.27 -0.58 L 314.27 0 Q 312.68 -0.09 309.72 -0.09 L 309.72 -0.09 Q 306.62 -0.09 305.14 0 L 305.14 0 L 305.14 -0.58 Q 306.18 -0.64 306.66 -0.81 Q 307.14 -0.99 307.31 -1.48 Q 307.49 -1.97 307.49 -3.07 L 307.49 -3.07 L 307.49 -18.24 L 300.5 0.03 L 300.03 0.03 L 292.2 -18.65 L 292.2 -4.76 Q 292.2 -3.05 292.38 -2.25 Q 292.55 -1.45 293.13 -1.09 Q 293.71 -0.73 295.02 -0.58 L 295.02 -0.58 L 295.02 0 Q 293.89 -0.09 291.88 -0.09 L 291.88 -0.09 Q 290.29 -0.09 289.36 0 L 289.36 0 L 289.36 -0.58 Q 290.32 -0.73 290.77 -1.07 Q 291.22 -1.42 291.38 -2.18 Q 291.54 -2.93 291.54 -4.41 L 291.54 -4.41 L 291.54 -17.46 Q 291.54 -18.56 291.38 -19.05 Q 291.22 -19.55 290.77 -19.72 Q 290.32 -19.89 289.36 -19.95 L 289.36 -19.95 L 289.36 -20.53 Q 290.29 -20.45 291.88 -20.45 L 291.88 -20.45 Q 294.55 -20.45 296.47 -20.53 L 296.47 -20.53 L 302.32 -6.41 L 307.66 -20.45 L 309.72 -20.45 Q 312.68 -20.45 314.27 -20.53 L 314.27 -20.53 Z M 332.89 -3.77 L 332.89 -3.77 Q 332.89 -2.12 333.09 0 L 333.09 0 Q 331.21 -0.09 326.74 -0.09 L 326.74 -0.09 Q 320.77 -0.09 317.75 0 L 317.75 0 L 317.75 -0.58 Q 318.74 -0.64 319.17 -0.81 Q 319.61 -0.99 319.77 -1.48 Q 319.93 -1.97 319.93 -3.07 L 319.93 -3.07 L 319.93 -14.56 Q 319.93 -15.66 319.77 -16.15 Q 319.61 -16.65 319.16 -16.82 Q 318.71 -16.99 317.75 -17.05 L 317.75 -17.05 L 317.75 -17.63 Q 320.77 -17.55 326.74 -17.55 L 326.74 -17.55 Q 330.8 -17.55 332.51 -17.63 L 332.51 -17.63 Q 332.31 -15.69 332.31 -14.15 L 332.31 -14.15 Q 332.31 -13.02 332.4 -12.35 L 332.4 -12.35 L 331.73 -12.35 Q 331.3 -14.85 330.22 -15.91 Q 329.15 -16.96 327.26 -16.96 L 327.26 -16.96 L 326.19 -16.96 Q 325.44 -16.96 325.06 -16.83 Q 324.68 -16.7 324.52 -16.31 Q 324.36 -15.92 324.36 -15.08 L 324.36 -15.08 L 324.36 -9.16 L 325.73 -9.16 Q 327.06 -9.16 327.74 -10.11 Q 328.42 -11.05 328.66 -12.3 L 328.66 -12.3 L 329.32 -12.3 Q 329.24 -11.31 329.24 -10.03 L 329.24 -10.03 L 329.24 -8.87 Q 329.24 -7.57 329.41 -5.45 L 329.41 -5.45 L 328.74 -5.45 Q 328.54 -6.82 327.83 -7.7 Q 327.12 -8.58 325.73 -8.58 L 325.73 -8.58 L 324.36 -8.58 L 324.36 -2.55 Q 324.36 -1.71 324.52 -1.32 Q 324.68 -0.93 325.06 -0.8 Q 325.44 -0.67 326.19 -0.67 L 326.19 -0.67 L 327.44 -0.67 Q 329.5 -0.67 330.67 -1.86 Q 331.85 -3.05 332.31 -5.86 L 332.31 -5.86 L 332.98 -5.86 Q 332.89 -5.05 332.89 -3.77 Z M 352.09 -3.77 L 352.09 -3.77 Q 352.09 -2.12 352.29 0 L 352.29 0 Q 350.41 -0.09 345.94 -0.09 L 345.94 -0.09 Q 339.97 -0.09 336.95 0 L 336.95 0 L 336.95 -0.58 Q 337.94 -0.64 338.37 -0.81 Q 338.81 -0.99 338.97 -1.48 Q 339.13 -1.97 339.13 -3.07 L 339.13 -3.07 L 339.13 -14.56 Q 339.13 -15.66 338.97 -16.15 Q 338.81 -16.65 338.36 -16.82 Q 337.91 -16.99 336.95 -17.05 L 336.95 -17.05 L 336.95 -17.63 Q 339.97 -17.55 345.94 -17.55 L 345.94 -17.55 Q 350 -17.55 351.71 -17.63 L 351.71 -17.63 Q 351.51 -15.69 351.51 -14.15 L 351.51 -14.15 Q 351.51 -13.02 351.6 -12.35 L 351.6 -12.35 L 350.93 -12.35 Q 350.49 -14.85 349.42 -15.91 Q 348.35 -16.96 346.46 -16.96 L 346.46 -16.96 L 345.39 -16.96 Q 344.64 -16.96 344.26 -16.83 Q 343.88 -16.7 343.72 -16.31 Q 343.56 -15.92 343.56 -15.08 L 343.56 -15.08 L 343.56 -9.16 L 344.93 -9.16 Q 346.26 -9.16 346.94 -10.11 Q 347.62 -11.05 347.85 -12.3 L 347.85 -12.3 L 348.52 -12.3 Q 348.43 -11.31 348.43 -10.03 L 348.43 -10.03 L 348.43 -8.87 Q 348.43 -7.57 348.61 -5.45 L 348.61 -5.45 L 347.94 -5.45 Q 347.74 -6.82 347.03 -7.7 Q 346.32 -8.58 344.93 -8.58 L 344.93 -8.58 L 343.56 -8.58 L 343.56 -2.55 Q 343.56 -1.71 343.72 -1.32 Q 343.88 -0.93 344.26 -0.8 Q 344.64 -0.67 345.39 -0.67 L 345.39 -0.67 L 346.64 -0.67 Q 348.7 -0.67 349.87 -1.86 Q 351.04 -3.05 351.51 -5.86 L 351.51 -5.86 L 352.18 -5.86 Q 352.09 -5.05 352.09 -3.77 Z M 373.17 -17.63 L 373.17 -17.63 Q 372.97 -15.43 372.97 -13.69 L 372.97 -13.69 Q 372.97 -12.06 373.06 -11.14 L 373.06 -11.14 L 372.39 -11.14 Q 371.98 -13.34 371.42 -14.59 Q 370.85 -15.83 369.97 -16.4 Q 369.08 -16.96 367.69 -16.96 L 367.69 -16.96 L 366.79 -16.96 L 366.79 -3.36 Q 366.79 -2.15 367.02 -1.59 Q 367.26 -1.04 367.84 -0.84 Q 368.42 -0.64 369.72 -0.58 L 369.72 -0.58 L 369.72 0 Q 368.15 -0.09 364.5 -0.09 L 364.5 -0.09 Q 360.82 -0.09 359.43 0 L 359.43 0 L 359.43 -0.58 Q 360.73 -0.64 361.31 -0.84 Q 361.89 -1.04 362.12 -1.59 Q 362.35 -2.15 362.35 -3.36 L 362.35 -3.36 L 362.35 -16.96 L 361.46 -16.96 Q 360.06 -16.96 359.18 -16.4 Q 358.29 -15.83 357.73 -14.59 Q 357.16 -13.34 356.76 -11.14 L 356.76 -11.14 L 356.09 -11.14 Q 356.18 -12.06 356.18 -13.69 L 356.18 -13.69 Q 356.18 -15.43 355.97 -17.63 L 355.97 -17.63 Q 358.5 -17.55 364.5 -17.55 L 364.5 -17.55 Q 370.62 -17.55 373.17 -17.63 Z M 383.9 -18.04 L 383.9 -18.04 Q 385.24 -18.04 386.18 -17.75 Q 387.12 -17.46 387.96 -16.96 L 387.96 -16.96 Q 388.28 -16.79 388.53 -16.68 Q 388.77 -16.56 388.95 -16.56 L 388.95 -16.56 Q 389.21 -16.56 389.35 -16.86 Q 389.5 -17.17 389.59 -17.84 L 389.59 -17.84 L 390.25 -17.84 Q 390.11 -16.1 390.11 -11.8 L 390.11 -11.8 L 389.44 -11.8 Q 389.12 -14.41 387.76 -15.91 Q 386.4 -17.4 384.19 -17.4 L 384.19 -17.4 Q 382.74 -17.4 381.86 -16.76 Q 380.97 -16.12 380.97 -15.11 L 380.97 -15.11 Q 380.97 -14.33 381.45 -13.67 Q 381.93 -13.02 382.71 -12.47 Q 383.5 -11.92 385 -11.02 L 385 -11.02 L 385.64 -10.64 Q 387.38 -9.66 388.48 -8.86 Q 389.59 -8.06 390.31 -6.97 Q 391.04 -5.89 391.04 -4.52 L 391.04 -4.52 Q 391.04 -2.15 389.06 -0.87 Q 387.09 0.41 383.87 0.41 L 383.87 0.41 Q 382.48 0.41 381.47 0.1 Q 380.45 -0.2 379.41 -0.73 L 379.41 -0.73 Q 378.68 -1.07 378.39 -1.07 L 378.39 -1.07 Q 378.13 -1.07 377.99 -0.77 Q 377.84 -0.46 377.75 0.2 L 377.75 0.2 L 377.09 0.2 Q 377.2 -1.42 377.2 -6.87 L 377.2 -6.87 L 377.87 -6.87 Q 378.07 -3.8 379.54 -2.03 Q 381 -0.26 383.67 -0.26 L 383.67 -0.26 Q 384.97 -0.26 385.93 -0.93 Q 386.89 -1.59 386.89 -2.9 L 386.89 -2.9 Q 386.89 -4.06 385.99 -4.9 Q 385.09 -5.74 382.92 -7.02 L 382.92 -7.02 Q 380.16 -8.58 378.7 -10.01 Q 377.23 -11.43 377.23 -13.34 L 377.23 -13.34 Q 377.23 -15.6 379.1 -16.82 Q 380.97 -18.04 383.9 -18.04 Z M 418.99 -4.41 L 418.99 -4.41 Q 418.99 -1.74 419.19 0 L 419.19 0 Q 417.22 -0.09 412.55 -0.09 L 412.55 -0.09 Q 406.23 -0.09 403.1 0 L 403.1 0 L 403.1 -0.58 Q 404.06 -0.64 404.51 -0.81 Q 404.96 -0.99 405.12 -1.48 Q 405.27 -1.97 405.27 -3.07 L 405.27 -3.07 L 405.27 -17.46 Q 405.27 -18.56 405.12 -19.05 Q 404.96 -19.55 404.51 -19.72 Q 404.06 -19.89 403.1 -19.95 L 403.1 -19.95 L 403.1 -20.53 Q 406.23 -20.45 412.55 -20.45 L 412.55 -20.45 Q 416.82 -20.45 418.61 -20.53 L 418.61 -20.53 Q 418.41 -18.13 418.41 -16.24 L 418.41 -16.24 Q 418.41 -14.96 418.5 -14.27 L 418.5 -14.27 L 417.83 -14.27 Q 417.4 -17.37 416.27 -18.62 Q 415.13 -19.87 413.08 -19.87 L 413.08 -19.87 L 411.89 -19.87 Q 410.99 -19.87 410.58 -19.72 Q 410.18 -19.57 410.03 -19.15 Q 409.89 -18.73 409.89 -17.81 L 409.89 -17.81 L 409.89 -10.61 L 410.81 -10.61 Q 412.35 -10.61 413.15 -11.75 Q 413.95 -12.88 414.26 -14.44 L 414.26 -14.44 L 414.93 -14.44 Q 414.84 -13.22 414.84 -11.72 L 414.84 -11.72 L 414.84 -10.32 Q 414.84 -8.85 415.02 -6.21 L 415.02 -6.21 L 414.35 -6.21 Q 413.74 -10.03 410.81 -10.03 L 410.81 -10.03 L 409.89 -10.03 L 409.89 -2.73 Q 409.89 -1.8 410.03 -1.38 Q 410.18 -0.96 410.58 -0.81 Q 410.99 -0.67 411.89 -0.67 L 411.89 -0.67 L 413.31 -0.67 Q 415.37 -0.67 416.63 -2.07 Q 417.89 -3.48 418.41 -6.84 L 418.41 -6.84 L 419.08 -6.84 Q 418.99 -5.89 418.99 -4.41 Z M 433.11 -10.32 L 439.03 -2.06 Q 439.61 -1.25 439.96 -0.96 Q 440.31 -0.67 440.83 -0.61 L 440.83 -0.61 L 440.83 0 Q 438.04 -0.12 437.09 -0.12 L 437.09 -0.12 Q 436.16 -0.12 433.11 -0.03 L 433.11 -0.03 Q 432.88 0 432.48 0 L 432.48 0 L 432.48 -0.61 Q 433.43 -0.61 433.87 -0.71 Q 434.3 -0.81 434.3 -1.07 L 434.3 -1.07 Q 434.3 -1.28 434.07 -1.59 L 434.07 -1.59 L 429.98 -7.34 L 427.66 -4.44 Q 426.68 -3.19 426.68 -2.32 L 426.68 -2.32 Q 426.68 -1.54 427.33 -1.09 Q 427.98 -0.64 429.11 -0.58 L 429.11 -0.58 L 429.11 0 Q 427.46 -0.09 424.79 -0.09 L 424.79 -0.09 Q 423.37 -0.09 422.33 0 L 422.33 0 L 422.33 -0.58 Q 423.2 -0.93 424.24 -1.75 Q 425.28 -2.58 425.98 -3.45 L 425.98 -3.45 L 429.58 -7.89 L 424.07 -15.6 Q 423.46 -16.44 423.14 -16.73 Q 422.82 -17.02 422.27 -17.05 L 422.27 -17.05 L 422.27 -17.66 Q 425.17 -17.55 426.01 -17.55 L 426.01 -17.55 Q 427.14 -17.55 430.01 -17.63 L 430.01 -17.63 Q 430.24 -17.66 430.62 -17.66 L 430.62 -17.66 L 430.62 -17.05 Q 429.66 -17.05 429.24 -16.94 Q 428.82 -16.82 428.82 -16.56 L 428.82 -16.56 Q 428.82 -16.36 429.03 -16.07 L 429.03 -16.07 L 432.74 -10.88 L 434.56 -13.14 Q 435.64 -14.41 435.64 -15.49 L 435.64 -15.49 Q 435.64 -16.18 435.16 -16.6 Q 434.68 -17.02 433.75 -17.05 L 433.75 -17.05 L 433.75 -17.63 Q 435.41 -17.55 437.38 -17.55 L 437.38 -17.55 Q 439.03 -17.55 439.84 -17.63 L 439.84 -17.63 L 439.84 -17.05 Q 439.09 -16.82 438.25 -16.18 Q 437.41 -15.54 436.68 -14.67 L 436.68 -14.67 L 433.11 -10.32 Z M 458.37 -3.77 L 458.37 -3.77 Q 458.37 -2.12 458.58 0 L 458.58 0 Q 456.69 -0.09 452.23 -0.09 L 452.23 -0.09 Q 446.25 -0.09 443.24 0 L 443.24 0 L 443.24 -0.58 Q 444.22 -0.64 444.66 -0.81 Q 445.09 -0.99 445.25 -1.48 Q 445.41 -1.97 445.41 -3.07 L 445.41 -3.07 L 445.41 -14.56 Q 445.41 -15.66 445.25 -16.15 Q 445.09 -16.65 444.64 -16.82 Q 444.19 -16.99 443.24 -17.05 L 443.24 -17.05 L 443.24 -17.63 Q 446.25 -17.55 452.23 -17.55 L 452.23 -17.55 Q 456.29 -17.55 458 -17.63 L 458 -17.63 Q 457.79 -15.69 457.79 -14.15 L 457.79 -14.15 Q 457.79 -13.02 457.88 -12.35 L 457.88 -12.35 L 457.21 -12.35 Q 456.78 -14.85 455.71 -15.91 Q 454.63 -16.96 452.75 -16.96 L 452.75 -16.96 L 451.67 -16.96 Q 450.92 -16.96 450.54 -16.83 Q 450.17 -16.7 450.01 -16.31 Q 449.85 -15.92 449.85 -15.08 L 449.85 -15.08 L 449.85 -9.16 L 451.21 -9.16 Q 452.54 -9.16 453.23 -10.11 Q 453.91 -11.05 454.14 -12.3 L 454.14 -12.3 L 454.81 -12.3 Q 454.72 -11.31 454.72 -10.03 L 454.72 -10.03 L 454.72 -8.87 Q 454.72 -7.57 454.89 -5.45 L 454.89 -5.45 L 454.23 -5.45 Q 454.02 -6.82 453.31 -7.7 Q 452.6 -8.58 451.21 -8.58 L 451.21 -8.58 L 449.85 -8.58 L 449.85 -2.55 Q 449.85 -1.71 450.01 -1.32 Q 450.17 -0.93 450.54 -0.8 Q 450.92 -0.67 451.67 -0.67 L 451.67 -0.67 L 452.92 -0.67 Q 454.98 -0.67 456.16 -1.86 Q 457.33 -3.05 457.79 -5.86 L 457.79 -5.86 L 458.46 -5.86 Q 458.37 -5.05 458.37 -3.77 Z M 471.97 -18.04 L 471.97 -18.04 Q 473.66 -18.04 474.7 -17.56 Q 475.74 -17.08 476.85 -16.15 L 476.85 -16.15 Q 477.17 -15.89 477.4 -15.89 L 477.4 -15.89 Q 477.98 -15.89 478.15 -17.63 L 478.15 -17.63 L 478.82 -17.63 Q 478.7 -15.89 478.7 -11.54 L 478.7 -11.54 L 478.04 -11.54 Q 477.75 -13.11 477.46 -13.82 Q 477.17 -14.53 476.59 -15.25 L 476.59 -15.25 Q 475.77 -16.21 474.74 -16.75 Q 473.71 -17.28 472.61 -17.28 L 472.61 -17.28 Q 471.02 -17.28 469.83 -16.25 Q 468.64 -15.23 467.99 -13.31 Q 467.33 -11.4 467.33 -8.76 L 467.33 -8.76 Q 467.33 -6.09 468.05 -4.19 Q 468.76 -2.29 470 -1.32 Q 471.25 -0.35 472.82 -0.35 L 472.82 -0.35 Q 473.95 -0.35 475.03 -0.88 Q 476.12 -1.42 476.9 -2.38 L 476.9 -2.38 Q 477.48 -3.1 477.75 -3.94 Q 478.01 -4.79 478.24 -6.38 L 478.24 -6.38 L 478.91 -6.38 Q 478.91 -1.83 479.02 0 L 479.02 0 L 478.35 0 Q 478.27 -0.9 478.09 -1.32 Q 477.92 -1.74 477.63 -1.74 L 477.63 -1.74 Q 477.4 -1.74 477.05 -1.48 L 477.05 -1.48 Q 475.98 -0.58 474.82 -0.09 Q 473.66 0.41 472.03 0.41 L 472.03 0.41 Q 469.28 0.41 467.16 -0.67 Q 465.04 -1.74 463.87 -3.77 Q 462.69 -5.8 462.69 -8.64 L 462.69 -8.64 Q 462.69 -11.4 463.91 -13.54 Q 465.13 -15.69 467.23 -16.86 Q 469.34 -18.04 471.97 -18.04 Z M 501 -17.63 L 501 -17.05 Q 499.99 -16.91 499.5 -16.56 Q 499 -16.21 498.83 -15.46 Q 498.65 -14.7 498.65 -13.22 L 498.65 -13.22 L 498.65 -7.86 Q 498.65 -5.86 498.38 -4.45 Q 498.1 -3.05 497.47 -2 L 497.47 -2 Q 496.77 -0.9 495.39 -0.25 Q 494.01 0.41 492.27 0.41 L 492.27 0.41 Q 489 0.41 487.17 -0.87 L 487.17 -0.87 Q 486.16 -1.62 485.63 -2.49 Q 485.11 -3.36 484.89 -4.6 Q 484.68 -5.83 484.68 -7.77 L 484.68 -7.77 L 484.68 -14.56 Q 484.68 -15.66 484.52 -16.15 Q 484.36 -16.65 483.91 -16.82 Q 483.46 -16.99 482.5 -17.05 L 482.5 -17.05 L 482.5 -17.63 Q 483.95 -17.55 486.91 -17.55 L 486.91 -17.55 Q 489.72 -17.55 491.29 -17.63 L 491.29 -17.63 L 491.29 -17.05 Q 490.3 -16.99 489.87 -16.82 Q 489.43 -16.65 489.27 -16.15 Q 489.11 -15.66 489.11 -14.56 L 489.11 -14.56 L 489.11 -7.28 Q 489.11 -5.19 489.39 -3.83 Q 489.66 -2.47 490.56 -1.62 Q 491.46 -0.78 493.23 -0.78 L 493.23 -0.78 Q 495.87 -0.78 496.93 -2.57 Q 497.99 -4.35 497.99 -7.54 L 497.99 -7.54 L 497.99 -12.88 Q 497.99 -14.56 497.78 -15.37 Q 497.58 -16.18 497 -16.54 Q 496.42 -16.91 495.17 -17.05 L 495.17 -17.05 L 495.17 -17.63 Q 496.31 -17.55 498.31 -17.55 L 498.31 -17.55 Q 500.05 -17.55 501 -17.63 L 501 -17.63 Z M 520.9 -17.63 L 520.9 -17.63 Q 520.69 -15.43 520.69 -13.69 L 520.69 -13.69 Q 520.69 -12.06 520.78 -11.14 L 520.78 -11.14 L 520.11 -11.14 Q 519.71 -13.34 519.14 -14.59 Q 518.58 -15.83 517.69 -16.4 Q 516.81 -16.96 515.42 -16.96 L 515.42 -16.96 L 514.52 -16.96 L 514.52 -3.36 Q 514.52 -2.15 514.75 -1.59 Q 514.98 -1.04 515.56 -0.84 Q 516.14 -0.64 517.45 -0.58 L 517.45 -0.58 L 517.45 0 Q 515.88 -0.09 512.23 -0.09 L 512.23 -0.09 Q 508.54 -0.09 507.15 0 L 507.15 0 L 507.15 -0.58 Q 508.46 -0.64 509.04 -0.84 Q 509.62 -1.04 509.85 -1.59 Q 510.08 -2.15 510.08 -3.36 L 510.08 -3.36 L 510.08 -16.96 L 509.18 -16.96 Q 507.79 -16.96 506.91 -16.4 Q 506.02 -15.83 505.46 -14.59 Q 504.89 -13.34 504.48 -11.14 L 504.48 -11.14 L 503.82 -11.14 Q 503.9 -12.06 503.9 -13.69 L 503.9 -13.69 Q 503.9 -15.43 503.7 -17.63 L 503.7 -17.63 Q 506.22 -17.55 512.23 -17.55 L 512.23 -17.55 Q 518.35 -17.55 520.9 -17.63 Z M 533.02 -17.63 L 533.02 -17.05 Q 532.03 -16.99 531.6 -16.82 Q 531.16 -16.65 531 -16.15 Q 530.84 -15.66 530.84 -14.56 L 530.84 -14.56 L 530.84 -3.07 Q 530.84 -1.97 531 -1.48 Q 531.16 -0.99 531.6 -0.81 Q 532.03 -0.64 533.02 -0.58 L 533.02 -0.58 L 533.02 0 Q 531.54 -0.09 528.73 -0.09 L 528.73 -0.09 Q 525.68 -0.09 524.23 0 L 524.23 0 L 524.23 -0.58 Q 525.22 -0.64 525.65 -0.81 Q 526.09 -0.99 526.25 -1.48 Q 526.41 -1.97 526.41 -3.07 L 526.41 -3.07 L 526.41 -14.56 Q 526.41 -15.66 526.25 -16.15 Q 526.09 -16.65 525.64 -16.82 Q 525.19 -16.99 524.23 -17.05 L 524.23 -17.05 L 524.23 -17.63 Q 525.65 -17.55 528.73 -17.55 L 528.73 -17.55 Q 531.54 -17.55 533.02 -17.63 L 533.02 -17.63 Z M 546.3 -18.04 L 546.3 -18.04 Q 549.23 -18.04 551.43 -16.98 Q 553.64 -15.92 554.86 -13.88 Q 556.07 -11.83 556.07 -8.99 L 556.07 -8.99 Q 556.07 -6.21 554.83 -4.07 Q 553.58 -1.94 551.35 -0.77 Q 549.11 0.41 546.27 0.41 L 546.27 0.41 Q 543.34 0.41 541.14 -0.65 Q 538.94 -1.71 537.72 -3.76 Q 536.5 -5.8 536.5 -8.64 L 536.5 -8.64 Q 536.5 -11.43 537.75 -13.56 Q 538.99 -15.69 541.23 -16.86 Q 543.46 -18.04 546.3 -18.04 Z M 546.19 -17.52 L 546.19 -17.52 Q 544.68 -17.52 543.53 -16.4 Q 542.39 -15.28 541.76 -13.3 Q 541.14 -11.31 541.14 -8.76 L 541.14 -8.76 Q 541.14 -6.18 541.84 -4.21 Q 542.53 -2.23 543.74 -1.17 Q 544.94 -0.12 546.39 -0.12 L 546.39 -0.12 Q 547.9 -0.12 549.04 -1.23 Q 550.19 -2.35 550.81 -4.34 Q 551.43 -6.32 551.43 -8.87 L 551.43 -8.87 Q 551.43 -11.46 550.74 -13.43 Q 550.04 -15.4 548.84 -16.46 Q 547.64 -17.52 546.19 -17.52 Z M 577.74 -17.63 L 577.74 -17.05 Q 576.78 -16.91 576.33 -16.62 Q 575.88 -16.33 575.72 -15.69 Q 575.56 -15.05 575.56 -13.75 L 575.56 -13.75 L 575.56 0.06 L 574.78 0.03 L 574.03 0.06 L 562.43 -14.36 L 562.43 -3.89 Q 562.43 -2.61 562.66 -1.96 Q 562.89 -1.31 563.5 -1.02 Q 564.11 -0.73 565.41 -0.58 L 565.41 -0.58 L 565.41 0 Q 564.11 -0.09 562.11 -0.09 L 562.11 -0.09 Q 560.51 -0.09 559.58 0 L 559.58 0 L 559.58 -0.58 Q 560.54 -0.73 560.99 -1.02 Q 561.44 -1.31 561.6 -1.94 Q 561.76 -2.58 561.76 -3.89 L 561.76 -3.89 L 561.76 -14.56 Q 561.76 -15.66 561.6 -16.15 Q 561.44 -16.65 560.99 -16.82 Q 560.54 -16.99 559.58 -17.05 L 559.58 -17.05 L 559.58 -17.63 Q 560.51 -17.55 562.11 -17.55 L 562.11 -17.55 Q 564.17 -17.55 565.64 -17.63 L 565.64 -17.63 L 574.9 -6.15 L 574.9 -13.75 Q 574.9 -15.02 574.66 -15.67 Q 574.43 -16.33 573.81 -16.62 Q 573.18 -16.91 571.91 -17.05 L 571.91 -17.05 L 571.91 -17.63 Q 573.18 -17.55 575.21 -17.55 L 575.21 -17.55 Q 576.84 -17.55 577.74 -17.63 L 577.74 -17.63 Z" stroke-linecap="round" />
</g>
</g>
</g>
<g transform="matrix(1.0583402184708508 0 0 1.0583402184708508 639.0161125118185 294.2360499471912)" id="shape-7671d3b4-cb8a-43d3-9a03-e3caacc539cf"  >
<g style=""  paint-order="stroke"   >
		<g transform="matrix(1 0 0 1 0 0)" id="path-01_00000180328355088507321920000005296887333901805723_"  >
<path style="stroke: none; stroke-width: 1; stroke-dasharray: none; stroke-linecap: butt; stroke-dashoffset: 0; stroke-linejoin: miter; stroke-miterlimit: 4; fill: rgb(188,188,188); fill-rule: nonzero; opacity: 1;"  paint-order="stroke"  transform=" translate(-125.501495, -125.75)" d="M 0 117.95947 C 4.0376 52.23608 58.77954 0 125.50146 0 C 192.22338 0 246.96533 52.23608 251.00299 117.95947 L 249.50006000000002 117.95947 C 245.46466 53.06384 191.39606 1.5 125.50146 1.5 C 59.60685999999998 1.5 5.53833 53.06384 1.50293 117.95947 L 0 117.95947 z M 244.05774 162.95947 C 228.20807 213.34985 181.05573 250 125.50146 250 C 69.94726 250 22.79491999999999 213.34985 6.945189999999997 162.95947 L 5.37158 162.95947 C 21.27283 214.18982 69.11121 251.5 125.50146 251.5 C 181.89171 251.5 229.7301 214.18982 245.63128 162.95947 L 244.05774 162.95947 z" stroke-linecap="round" />
</g>
</g>
</g>
</svg>